<?xml version="1.0" encoding="utf-8"?>
<svg xmlns="http://www.w3.org/2000/svg" viewBox="-301.2766 499.0419 1217.9216 308.0709" width="1217.92px" height="308.071px">
  <path d="M -14.695 501.711 C -20.025 503.011 -24.445 504.311 -24.705 504.571 C -24.835 504.701 -25.485 509.771 -26.135 515.881 L -27.175 526.931 L -33.285 530.051 L -39.395 533.171 L -47.975 527.061 C -52.655 523.811 -56.945 521.081 -57.335 521.081 C -58.375 521.081 -69.165 529.921 -74.495 535.251 L -79.045 539.671 L -74.235 549.031 C -71.635 554.101 -69.425 558.651 -69.425 559.171 C -69.425 559.691 -70.985 562.551 -72.805 565.411 L -76.185 570.741 L -87.365 570.351 L -98.545 569.831 L -102.7 581.531 C -105.05 587.901 -107 594.011 -107 594.921 C -107.13 595.701 -102.97 599.081 -97.895 602.331 L -88.795 608.311 L -89.185 615.071 L -89.575 621.831 L -98.675 626.641 C -103.61 629.371 -108.17 631.711 -108.69 631.841 C -109.72 632.361 -107.78 644.061 -105.17 653.161 L -103.09 660.181 L -81.255 660.181 L -78.005 666.551 L -74.885 672.921 L -80.605 681.501 C -83.725 686.181 -86.325 690.731 -86.325 691.771 C -86.325 692.681 -82.295 697.751 -77.485 703.081 L -68.645 712.571 L -59.285 707.891 C -54.085 705.291 -49.275 703.081 -48.495 703.081 C -47.715 703.081 -44.855 704.641 -42.125 706.591 L -37.055 710.231 L -37.835 721.541 C -38.225 727.911 -38.355 732.981 -38.095 732.981 C -37.835 732.981 -32.375 734.801 -26.135 736.881 C -19.765 739.091 -13.785 740.781 -12.875 740.781 C -11.965 740.781 -8.585 736.751 -5.465 731.681 C 0.125 722.711 0.125 722.711 5.975 722.711 C 9.225 722.581 12.605 723.101 13.515 723.621 C 14.425 724.271 17.155 728.821 19.495 733.891 L 23.915 742.991 L 32.105 741.951 C 36.655 741.301 43.025 740.131 46.275 739.091 L 52.125 737.401 L 52.515 726.741 L 52.905 716.081 L 57.715 712.831 C 60.315 711.011 63.565 709.581 64.865 709.581 C 66.165 709.581 70.585 711.921 74.485 714.781 C 78.515 717.641 82.805 719.981 84.105 719.981 C 85.275 719.981 90.605 715.951 95.805 711.141 L 105.165 702.301 L 100.485 693.331 C 97.885 688.391 95.675 683.581 95.675 682.671 C 95.675 681.631 97.235 678.641 99.055 675.781 L 102.435 670.711 L 113.745 671.491 L 125.185 672.271 L 127.915 664.601 C 132.725 651.341 133.765 645.621 131.815 644.321 C 130.905 643.801 126.745 641.201 122.715 638.601 L 115.175 634.051 L 115.175 619.881 L 125.315 614.941 C 136.755 609.221 136.495 610.131 132.465 592.321 L 130.125 582.311 L 119.075 581.921 L 108.025 581.531 L 105.035 575.941 C 101.785 570.221 101.915 565.931 105.165 562.421 C 108.545 558.781 112.575 552.281 112.575 550.721 C 112.445 548.771 111.145 546.951 102.825 537.331 C 99.445 533.431 95.805 530.181 94.765 530.181 C 93.725 530.181 88.785 532.261 83.845 534.861 L 74.745 539.671 L 69.285 535.641 L 63.825 531.741 L 63.825 508.861 L 55.115 506.001 C 50.305 504.311 44.325 502.621 41.855 502.101 C 37.435 501.321 37.175 501.451 31.325 510.551 L 25.345 519.781 L 12.215 519.781 L 7.535 509.381 C 1.945 497.421 1.815 497.291 -14.695 501.711 Z M 34.705 574.771 C 46.015 580.231 53.295 587.381 58.885 598.821 C 63.565 608.181 63.825 609.351 63.825 621.181 C 63.825 632.361 63.435 634.311 59.795 641.981 C 43.805 675.261 0.515 682.151 -24.055 655.241 C -34.455 643.931 -37.445 636.261 -37.445 621.181 C -37.445 610.521 -37.055 607.791 -34.065 601.421 C -29.385 591.411 -24.965 585.691 -17.035 579.971 C -6.765 572.431 0.515 570.351 15.075 570.871 C 25.215 571.261 28.725 571.911 34.705 574.771 Z" style="stroke: none; stroke-width: 1; stroke-dasharray: none; stroke-linecap: butt; stroke-dashoffset: 0; stroke-linejoin: miter; stroke-miterlimit: 4; fill-rule: nonzero; opacity: 1; fill: rgb(255, 255, 255);" vector-effect="non-scaling-stroke" transform="matrix(1, 0, 0, 1, 1.1368683772161603e-13, 0)"/>
  <path d="M -212.07 616.5 C -216.35 630.28 -217.79 632.1 -225.72 633.79 C -229.61 634.57 -230.53 634.18 -236.25 628.59 L -242.48 622.35 L -251.2 627.29 C -258.73 631.45 -259.78 632.49 -259 634.83 C -254.97 647.96 -254.97 647.31 -260.43 652.77 L -265.49 657.71 L -273.16 655.24 C -277.32 653.81 -281.22 653.03 -281.88 653.42 C -283.82 654.59 -290.85 667.33 -290.85 669.67 C -290.85 670.84 -288.38 673.83 -285.52 676.56 L -280.05 681.37 L -282.4 688.39 C -284.6 694.76 -285.26 695.41 -289.41 696.19 C -302.41 698.4 -301.25 697.1 -301.25 708.41 L -301.25 718.55 L -292.92 720.76 L -284.6 723.1 L -283.69 730.38 L -282.79 737.66 L -288.77 742.73 L -294.75 747.8 L -291.88 753.13 C -290.45 756.12 -288.11 760.15 -286.82 761.97 L -284.47 765.35 L -276.55 763.27 L -268.61 761.19 L -264.19 766.13 C -261.72 768.86 -259.64 771.46 -259.64 771.85 C -259.64 772.11 -260.55 775.62 -261.72 779.52 C -263.29 784.98 -263.41 787.06 -262.24 788.49 C -260.3 790.96 -249.89 796.94 -247.82 796.94 C -246.91 796.94 -243.66 794.47 -240.54 791.61 L -235.07 786.15 L -228.19 788.62 L -221.29 791.09 L -220.26 798.24 C -219.73 802.14 -218.57 805.78 -217.66 806.3 C -216.88 806.95 -212.07 807.21 -207.13 807.08 L -198.16 806.69 L -195.95 799.02 C -193.86 791.35 -193.86 791.35 -187.36 789.66 L -181 787.97 L -174.88 794.08 L -168.77 800.06 L -162.54 797.07 C -151.35 791.87 -151.35 791.87 -153.18 782.77 L -154.87 774.84 L -150.45 770.29 C -145.37 765.09 -145.11 764.96 -136.27 767.82 C -128.47 770.42 -127.95 770.03 -122.49 760.02 L -118.59 752.87 L -124.18 747.15 C -129.38 741.82 -129.77 741.04 -128.86 736.49 C -127.69 729.86 -124.57 727.13 -116.9 726.09 C -110.27 725.18 -110.27 725.18 -109.49 719.85 C -108.97 716.86 -108.84 712.05 -109.1 709.19 C -109.49 704.12 -109.62 703.99 -116.51 702.43 C -120.28 701.65 -123.92 700.48 -124.44 699.83 C -124.96 699.31 -126.13 696.06 -127.04 692.55 L -128.73 686.31 L -123.66 681.89 C -120.8 679.42 -118.2 677.47 -117.55 677.34 C -115.6 677.34 -116.77 672.92 -120.8 665.51 C -123.14 661.22 -125.61 657.84 -126.13 657.84 C -126.78 657.84 -130.55 658.75 -134.58 659.92 L -141.86 662.13 L -146.67 656.8 L -151.35 651.34 L -149.01 643.93 L -146.54 636.52 L -149.4 633.53 C -150.96 631.84 -152.79 630.54 -153.57 630.54 C -154.35 630.54 -156.43 629.37 -158.24 627.94 C -160.07 626.51 -161.88 625.34 -162.54 625.34 C -163.06 625.34 -166.04 627.68 -169.29 630.67 C -174.62 635.61 -175.4 635.87 -180.22 635.09 C -187.23 633.92 -188.79 632.23 -190.61 623.91 L -192.17 616.63 L -198.16 615.72 C -207.26 614.55 -211.54 614.81 -212.07 616.5 Z M -190.1 680.46 C -183.2 683.58 -174.76 691.12 -172.02 696.71 C -162.15 716.08 -170.98 739.74 -191.13 748.19 C -198.8 751.31 -212.98 750.79 -220.64 746.89 C -233.64 740.26 -241.45 727.65 -241.45 713.09 C -241.45 699.44 -232.22 685.92 -218.82 679.81 C -211.03 676.3 -198.42 676.56 -190.1 680.46 Z" style="stroke: none; stroke-width: 1; stroke-dasharray: none; stroke-linecap: butt; stroke-dashoffset: 0; stroke-linejoin: miter; stroke-miterlimit: 4; fill-rule: nonzero; opacity: 1; fill: rgb(255, 255, 255);" vector-effect="non-scaling-stroke" transform="matrix(1, 0, 0, 1, 1.1368683772161603e-13, 0)"/>
  <path d="M4351 2190c0-8 3-21 8-28 6-10 10-10 21 3s10 15-3 9c-10-3-17 1-20 13s-5 13-6 3z" style="stroke: none; stroke-width: 1; stroke-dasharray: none; stroke-linecap: butt; stroke-dashoffset: 0; stroke-linejoin: miter; stroke-miterlimit: 4; fill-rule: nonzero; opacity: 1; fill: rgb(255, 255, 255);" vector-effect="non-scaling-stroke" transform="matrix(0.12999999523162845, 0, 0, -0.12999999523162845, 157.16400380676998, 813.3880126087072)"/>
  <path d="M4115 2060c-3-6 1-7 9-4 18 7 21 14 7 14-6 0-13-4-16-10z" style="stroke: none; stroke-width: 1; stroke-dasharray: none; stroke-linecap: butt; stroke-dashoffset: 0; stroke-linejoin: miter; stroke-miterlimit: 4; fill-rule: nonzero; opacity: 1; fill: rgb(255, 255, 255);" vector-effect="non-scaling-stroke" transform="matrix(0.12999999523162845, 0, 0, -0.12999999523162845, 156.3529991560132, 813.7630126142951)"/>
  <path d="M157 1344c-4-4-7-130-7-281V789l98 3 97 3v550l-90 3c-50 1-94 0-98-4z" style="stroke: none; stroke-width: 1; stroke-dasharray: none; stroke-linecap: butt; stroke-dashoffset: 0; stroke-linejoin: miter; stroke-miterlimit: 4; fill-rule: nonzero; opacity: 1; fill: rgb(255, 255, 255);" vector-effect="non-scaling-stroke" transform="matrix(0.12999999523162845, 0, 0, -0.12999999523162845, 143.42500518895702, 817.0780151050986)"/>
  <path d="M432 1342c-9-3-12-70-12-278V790h199l3 113 3 112 33-58 33-58 76 3 77 3 26 44c43 74 50 66 50-53V790h190v560l-96-1-95-1-34-53c-19-29-50-82-70-119-20-36-40-66-45-66-4 0-40 54-80 120l-72 121-87-2c-47-1-92-4-99-7z" style="stroke: none; stroke-width: 1; stroke-dasharray: none; stroke-linecap: butt; stroke-dashoffset: 0; stroke-linejoin: miter; stroke-miterlimit: 4; fill-rule: nonzero; opacity: 1; fill: rgb(255, 255, 255);" vector-effect="non-scaling-stroke" transform="matrix(0.12999999523162845, 0, 0, -0.12999999523162845, 145.14999605938795, 817.0650146166237)"/>
  <path d="M1326 1335c-54-21-100-57-128-102-21-34-23-50-23-153 0-132 5-157 42-200 66-79 186-113 318-91 84 14 137 42 179 94 30 38 31 41 34 164 5 177-13 219-120 275-36 18-62 23-153 25-79 2-121-2-149-12zm205-151c16-15 19-31 19-115 0-95-1-98-27-119-22-17-37-21-70-17-66 7-73 20-73 136 0 97 1 100 28 121 32 26 91 23 123-6z" style="stroke: none; stroke-width: 1; stroke-dasharray: none; stroke-linecap: butt; stroke-dashoffset: 0; stroke-linejoin: miter; stroke-miterlimit: 4; fill-rule: nonzero; opacity: 1; fill: rgb(255, 255, 255);" vector-effect="non-scaling-stroke" transform="matrix(0.12999999523162845, 0, 0, -0.12999999523162845, 147.47700720246155, 817.0860107106865)"/>
  <path d="M1814 1341c-2-2-4-128-4-279V788l208 4c226 4 239 6 295 66 56 59 42 162-27 203l-35 20 34 35c69 69 52 156-41 204-47 24-55 25-237 25-104 0-191-2-193-4zm305-145c9-11 10-20 1-35-9-17-20-21-60-21h-50v70h49c30 0 53-5 60-14zm18-213c20-26-2-51-52-59-61-9-75-1-75 39 0 19 3 37 6 40 12 12 109-4 121-20z" style="stroke: none; stroke-width: 1; stroke-dasharray: none; stroke-linecap: butt; stroke-dashoffset: 0; stroke-linejoin: miter; stroke-miterlimit: 4; fill-rule: nonzero; opacity: 1; fill: rgb(255, 255, 255);" vector-effect="non-scaling-stroke" transform="matrix(0.12999999523162845, 0, 0, -0.12999999523162845, 149.53500589035468, 817.085034148172)"/>
  <path d="M2405 1337c-3-7-4-131-3-277l3-265 233-3 232-2v150h-271l3 28 3 27 99 2c55 2 101 4 102 6 8 8 14 93 9 119l-7 28h-208v50h261l-3 73-3 72-223 2c-172 2-224 0-227-10z" style="stroke: none; stroke-width: 1; stroke-dasharray: none; stroke-linecap: butt; stroke-dashoffset: 0; stroke-linejoin: miter; stroke-miterlimit: 4; fill-rule: nonzero; opacity: 1; fill: rgb(255, 255, 255);" vector-effect="non-scaling-stroke" transform="matrix(0.12999999523162845, 0, 0, -0.12999999523162845, 151.38499676264826, 817.0700194995107)"/>
  <path d="M2930 1071V789l98 3 97 3v83c0 110 16 110 81 0l49-83 108-3c66-2 107 1 107 7 0 11-50 99-81 143-23 31-25 64-4 71 8 4 26 24 41 46 44 68 31 174-30 224-63 53-90 59-283 65l-183 5v-282zm301 119c21-12 25-50 7-68-7-7-35-12-63-12h-51l2 43c2 23 3 43 3 45 2 7 85 0 102-8z" style="stroke: none; stroke-width: 1; stroke-dasharray: none; stroke-linecap: butt; stroke-dashoffset: 0; stroke-linejoin: miter; stroke-miterlimit: 4; fill-rule: nonzero; opacity: 1; fill: rgb(255, 255, 255);" vector-effect="non-scaling-stroke" transform="matrix(0.12999999523162845, 0, 0, -0.12999999523162845, 153.2700065563621, 817.0700194995107)"/>
  <path d="M3525 1339c-3-8-4-133-3-279l3-265h370l55 31c76 43 116 104 125 189 17 157-26 249-141 302-52 23-71 26-230 31-143 4-175 2-179-9zm303-159 42-19V980l-32-20c-22-14-47-20-73-18l-40 3-3 114c-1 63 0 121 2 128 8 19 54 16 104-7z" style="stroke: none; stroke-width: 1; stroke-dasharray: none; stroke-linecap: butt; stroke-dashoffset: 0; stroke-linejoin: miter; stroke-miterlimit: 4; fill-rule: nonzero; opacity: 1; fill: rgb(255, 255, 255);" vector-effect="non-scaling-stroke" transform="matrix(0.12999999523162845, 0, 0, -0.12999999523162845, 155.26700060467442, 817.0579955735503)"/>
  <path d="M4290 1341c-51-16-109-51-127-78-37-54-43-83-43-201 0-103 3-122 23-157 51-91 187-139 330-117 102 16 157 47 202 117 28 43 35 237 10 301-20 53-80 107-143 128-48 17-206 21-252 7zm182-161c30-30 30-32 26-120-4-104-13-120-79-127-35-4-50 0-71 17-27 21-28 25-28 111 0 97 9 125 43 139 43 17 78 11 109-20z" style="stroke: none; stroke-width: 1; stroke-dasharray: none; stroke-linecap: butt; stroke-dashoffset: 0; stroke-linejoin: miter; stroke-miterlimit: 4; fill-rule: nonzero; opacity: 1; fill: rgb(255, 255, 255);" vector-effect="non-scaling-stroke" transform="matrix(0.12999999523162845, 0, 0, -0.12999999523162845, 157.30499501980842, 817.0830199879857)"/>
  <path d="M4768 1344c-5-4-8-130-8-281V790h190v85c0 75 2 85 18 85 11 0 28-17 42-42 13-24 36-62 52-85l29-43h104c58 0 105 2 105 5 0 11-43 91-71 132-35 51-36 69-5 94 75 59 73 206-3 267-62 49-90 55-271 60-96 2-178 1-182-4zm293-154c21-12 25-50 7-68-7-7-36-12-65-12h-53v38c0 21 3 42 7 45 10 11 82 8 104-3z" style="stroke: none; stroke-width: 1; stroke-dasharray: none; stroke-linecap: butt; stroke-dashoffset: 0; stroke-linejoin: miter; stroke-miterlimit: 4; fill-rule: nonzero; opacity: 1; fill: rgb(255, 255, 255);" vector-effect="non-scaling-stroke" transform="matrix(0.12999999523162845, 0, 0, -0.12999999523162845, 159.3699974919856, 817.072033659697)"/>
  <path d="M5364 1341c-2-2-4-127-4-278V790h190v180h220v139l-107 3-108 3v80l128 3 128 3-3 72-3 72h-218c-120 0-220-2-223-4z" style="stroke: none; stroke-width: 1; stroke-dasharray: none; stroke-linecap: butt; stroke-dashoffset: 0; stroke-linejoin: miter; stroke-miterlimit: 4; fill-rule: nonzero; opacity: 1; fill: rgb(255, 255, 255);" vector-effect="non-scaling-stroke" transform="matrix(0.12999999523162845, 0, 0, -0.12999999523162845, 161.2149987401814, 817.0750243823978)"/>
  <path d="M3411 579c-14-5-37-23-53-39-22-23-28-39-28-74 0-54 22-78 137-147 60-37 85-57 89-76 20-77-89-107-177-49-21 14-41 26-44 26s-5-18-5-39c0-36 3-41 43-60 50-24 140-28 184-9 54 24 75 53 80 105 6 67-18 101-109 154-80 47-128 86-128 105 0 7 12 22 26 33 34 27 85 27 143 1 24-11 45-20 48-20 2 0 3 17 1 37-3 31-8 38-38 49-42 15-135 17-169 3z" style="stroke: none; stroke-width: 1; stroke-dasharray: none; stroke-linecap: butt; stroke-dashoffset: 0; stroke-linejoin: miter; stroke-miterlimit: 4; fill-rule: nonzero; opacity: 1; fill: rgb(255, 255, 255);" vector-effect="non-scaling-stroke" transform="matrix(0.12999999523162845, 0, 0, -0.12999999523162845, 154.21000901177547, 819.4900024457276)"/>
  <path d="M4122 581c-19-5-48-53-138-229-63-122-114-227-114-232 0-6 17-10 38-10 37 0 39 2 72 70l34 70h232l36-67c32-63 37-68 71-71 24-2 37 1 37 9 0 16-218 441-233 455-7 6-22 8-35 5zm51-186c20-42 37-78 37-80 0-3-36-5-80-5s-80 2-80 5c0 10 75 155 80 155 3 0 22-34 43-75z" style="stroke: none; stroke-width: 1; stroke-dasharray: none; stroke-linecap: butt; stroke-dashoffset: 0; stroke-linejoin: miter; stroke-miterlimit: 4; fill-rule: nonzero; opacity: 1; fill: rgb(255, 255, 255);" vector-effect="non-scaling-stroke" transform="matrix(0.12999999523162845, 0, 0, -0.12999999523162845, 156.36999744728223, 819.4849975628405)"/>
  <path d="M1410 355V123c0-5 15-9 34-11l35-3 3 103 3 103 140 3c77 1 149 1 160-2 18-5 20-13 20-103v-98l38-3 37-3v471h-34c-31 0-34-3-40-37-3-21-6-66-6-100v-63h-320v200h-70V355z" style="stroke: none; stroke-width: 1; stroke-dasharray: none; stroke-linecap: butt; stroke-dashoffset: 0; stroke-linejoin: miter; stroke-miterlimit: 4; fill-rule: nonzero; opacity: 1; fill: rgb(255, 255, 255);" vector-effect="non-scaling-stroke" transform="matrix(0.12999999523162845, 0, 0, -0.12999999523162845, 148.08000403761878, 819.4849975628405)"/>
  <path d="M2500 418c-50-14-88-44-110-88-41-80-11-155 80-203 48-25 63-28 113-24 168 15 239 189 115 280-58 42-129 55-198 35zm151-84c43-41 41-94-5-140-29-29-41-34-79-34-84 0-142 84-106 151 33 63 135 76 190 23z" style="stroke: none; stroke-width: 1; stroke-dasharray: none; stroke-linecap: butt; stroke-dashoffset: 0; stroke-linejoin: miter; stroke-miterlimit: 4; fill-rule: nonzero; opacity: 1; fill: rgb(255, 255, 255);" vector-effect="non-scaling-stroke" transform="matrix(0.12999999523162845, 0, 0, -0.12999999523162845, 151.151995050192, 819.7580078208148)"/>
  <path d="M2871 416c-58-21-77-69-45-114 8-12 46-38 84-57 77-39 87-49 70-70-16-19-97-19-130 0-36 21-40 19-40-19 0-31 3-34 44-45 96-24 178-3 204 52 24 50 5 77-84 123-57 29-79 46-79 60 0 16 7 19 50 19 28-1 62-5 78-9 25-8 27-6 27 21s-4 30-51 41c-61 14-84 14-128-2z" style="stroke: none; stroke-width: 1; stroke-dasharray: none; stroke-linecap: butt; stroke-dashoffset: 0; stroke-linejoin: miter; stroke-miterlimit: 4; fill-rule: nonzero; opacity: 1; fill: rgb(255, 255, 255);" vector-effect="non-scaling-stroke" transform="matrix(0.12999999523162845, 0, 0, -0.12999999523162845, 152.4010032475145, 819.7540405355995)"/>
  <path d="M1990 265V110h69l3 117 3 118 30 14c40 19 92 17 116-5 17-15 19-31 19-131V110h70v128c0 124-1 129-25 152-34 31-128 40-176 16-29-15-34-15-41-1-5 8-22 15-38 15h-30V265z" style="stroke: none; stroke-width: 1; stroke-dasharray: none; stroke-linecap: butt; stroke-dashoffset: 0; stroke-linejoin: miter; stroke-miterlimit: 4; fill-rule: nonzero; opacity: 1; fill: rgb(255, 255, 255);" vector-effect="non-scaling-stroke" transform="matrix(0.12999999523162845, 0, 0, -0.12999999523162845, 149.750002231449, 819.750012215227)"/>
  <path d="M3743 174c-18-8-16-49 1-64 35-28 93 11 70 48-11 17-48 25-71 16z" style="stroke: none; stroke-width: 1; stroke-dasharray: none; stroke-linecap: butt; stroke-dashoffset: 0; stroke-linejoin: miter; stroke-miterlimit: 4; fill-rule: nonzero; opacity: 1; fill: rgb(255, 255, 255);" vector-effect="non-scaling-stroke" transform="matrix(0.12999999523162845, 0, 0, -0.12999999523162845, 155.18600695112366, 820.1729858543423)"/>
  <path d="M4452 168c-34-34 9-80 55-59 19 9 24 18 21 39-2 22-9 28-33 30-17 2-36-3-43-10z" style="stroke: none; stroke-width: 1; stroke-dasharray: none; stroke-linecap: butt; stroke-dashoffset: 0; stroke-linejoin: miter; stroke-miterlimit: 4; fill-rule: nonzero; opacity: 1; fill: rgb(255, 255, 255);" vector-effect="non-scaling-stroke" transform="matrix(0.12999999523162845, 0, 0, -0.12999999523162845, 157.552004300833, 820.1699951316415)"/>
</svg>